<svg width="26" height="24" viewBox="0 0 26 24" fill="none" xmlns="http://www.w3.org/2000/svg">
<path d="M4.14831 10.8607H21.9072V3.53785C21.9072 2.19782 20.8108 1.08789 19.4572 1.08789H6.58477C5.24473 1.08789 4.13477 2.18428 4.13477 3.53785L4.14831 10.8607Z" stroke="#CAD2D8" stroke-width="0.7344" stroke-miterlimit="10" stroke-linecap="round"/>
<path d="M1.44141 17.9948H24.6011V14.083C24.6011 12.3098 23.1663 10.875 21.3795 10.875H4.67647C2.88975 10.875 1.45496 12.3233 1.45496 14.083V17.9948H1.44141Z" stroke="#CAD2D8" stroke-width="0.7344" stroke-miterlimit="10" stroke-linecap="round"/>
<path d="M9.88709 10.8607H16.1677C16.7362 10.8607 17.1964 10.414 17.1964 9.84553V7.6392C17.1964 7.0707 16.7362 6.62402 16.1677 6.62402H9.88709C9.31859 6.62402 8.8584 7.0707 8.8584 7.6392V9.84553C8.8584 10.414 9.31859 10.8607 9.88709 10.8607Z" stroke="#CAD2D8" stroke-width="0.7344" stroke-miterlimit="10" stroke-linecap="round"/>
<path d="M1.65791 20.2013H24.3709C24.9664 20.2013 25.4673 19.7275 25.4673 19.1049V19.0778C25.4673 18.4823 24.98 17.9814 24.3709 17.9814H1.65791C1.06234 17.9814 0.561523 18.4823 0.561523 19.0778V19.1049C0.561523 19.714 1.04881 20.2013 1.65791 20.2013Z" stroke="#CAD2D8" stroke-width="0.7344" stroke-miterlimit="10" stroke-linecap="round"/>
<path d="M21.5838 23.0292H22.22C22.802 23.0292 23.2893 22.5419 23.2893 21.9463V21.256C23.2893 20.6739 22.8156 20.2002 22.22 20.2002H21.5703C20.9882 20.2002 20.501 20.6604 20.501 21.256V21.9463C20.5145 22.5419 20.9882 23.0292 21.5838 23.0292Z" stroke="#CAD2D8" stroke-width="0.7344" stroke-miterlimit="10" stroke-linecap="round"/>
<path d="M3.82422 23.0292H4.47391C5.05594 23.0292 5.54324 22.5419 5.54324 21.9463V21.256C5.54324 20.6739 5.06948 20.2002 4.47391 20.2002H3.82422C3.24218 20.2002 2.75488 20.6604 2.75488 21.256V21.9463C2.75488 22.5419 3.22864 23.0292 3.82422 23.0292Z" stroke="#CAD2D8" stroke-width="0.7344" stroke-miterlimit="10" stroke-linecap="round"/>
</svg>
