<svg width="30" height="30" viewBox="0 0 30 30" fill="none" xmlns="http://www.w3.org/2000/svg">
<path d="M2.55671 30.0037C1.87993 30.0037 1.22196 29.7405 0.751973 29.2517C0.263191 28.763 0 28.1238 0 27.447C0 26.7702 0.263191 26.1123 0.751973 25.6423L11.3736 15.0207L0.808371 4.43664C-0.187993 3.44028 -0.187993 1.80474 0.808371 0.808371C1.29715 0.319589 1.93633 0.056398 2.61311 0.056398C3.28988 0.056398 3.94786 0.319589 4.41784 0.808371L14.9831 11.3736L25.6047 0.751973C26.1123 0.263191 26.7514 0 27.447 0C28.1238 0 28.7818 0.263191 29.2518 0.751973C30.2481 1.74834 30.2481 3.38388 29.2518 4.38024L18.6301 15.0019L29.1954 25.5671C29.6841 26.0559 29.9473 26.695 29.9473 27.3718C29.9473 28.0486 29.6841 28.7066 29.1954 29.1766C28.7066 29.6653 28.0674 29.9285 27.3906 29.9285C26.7138 29.9285 26.0559 29.6653 25.5859 29.1766L15.0019 18.6301L4.38024 29.2517C3.89146 29.7405 3.25228 30.0037 2.55671 30.0037Z" fill="#F2F2F2"/>
</svg>
