<svg width="24" height="21" viewBox="0 0 24 21" fill="none" xmlns="http://www.w3.org/2000/svg">
<path d="M23.284 10.9502C23.284 9.61392 23.284 9.61391 22.0018 9.48661C21.9735 9.48398 21.9443 9.48398 21.916 9.48485C21.7648 9.491 21.7339 9.41637 21.7339 9.268C21.7331 8.73859 21.6309 8.21883 21.5055 7.71137C20.8958 5.23991 19.5123 3.31015 17.5045 1.83079C16.8948 1.38127 16.2207 1.05818 15.5277 0.758794C14.3555 0.25221 13.1395 0.023063 11.8754 0.0107716C10.7951 -0.0462959 9.73965 0.124905 8.72804 0.488382C4.7769 1.90892 2.47543 4.75879 1.80646 8.97739C1.74377 9.37072 1.64501 9.48924 1.24397 9.48924C0.48655 9.49012 0.289035 9.73771 0.288177 10.498C0.287318 11.9142 0.278732 13.3303 0.295048 14.7456C0.305353 15.6718 0.679769 16.4945 1.47326 16.8931C2.16714 17.2416 2.2762 17.7035 2.20062 18.3567C2.19204 18.4286 2.19977 18.5024 2.19977 18.5753C2.20235 20.1257 3.03792 20.9739 4.56736 20.9747C6.73744 20.9765 8.90752 20.9774 11.0785 20.9747C11.4022 20.9747 11.726 21.0555 12.0497 20.9282C12.4241 20.7807 12.5847 20.505 12.5581 20.1143C12.5306 19.7166 12.3219 19.4611 11.9243 19.412C11.6985 19.3839 11.4683 19.3865 11.2408 19.3865C8.9994 19.3856 6.75719 19.3874 4.51583 19.3865C3.93102 19.3865 3.75412 19.2162 3.74553 18.6543C3.74038 18.3479 3.75497 18.0406 3.74123 17.7351C3.73093 17.505 3.77559 17.3804 4.04095 17.4014C4.31059 17.4225 4.58453 17.4199 4.85333 17.3953C5.45617 17.34 5.68546 17.0819 5.68632 16.4585C5.69061 14.4585 5.68976 12.4585 5.68632 10.4594C5.68546 9.79302 5.40122 9.49715 4.74942 9.47871C4.36384 9.46817 3.97825 9.4629 3.59353 9.48134C3.32732 9.49451 3.28009 9.38301 3.32045 9.14333C3.43209 8.48134 3.59181 7.83516 3.81079 7.2004C4.41106 5.46555 5.52488 4.11085 6.95986 3.08364C8.40772 2.04676 10.0866 1.57003 11.8702 1.54808C12.3657 1.60603 12.8655 1.64027 13.3559 1.72543C16.8897 2.33913 19.8112 5.51735 20.2208 9.16001C20.2508 9.42691 20.1873 9.49451 19.9425 9.48573C19.5716 9.47256 19.2006 9.47607 18.8296 9.48485C18.1709 9.4989 17.8867 9.78687 17.885 10.4515C17.8807 12.4506 17.8807 14.4497 17.885 16.4488C17.8867 17.0906 18.1795 17.3909 18.7995 17.3997C19.3414 17.4076 19.8841 17.4049 20.4269 17.4014C22.1384 17.39 23.2728 16.2381 23.2805 14.4971C23.2883 13.3145 23.284 12.1328 23.284 10.9502ZM3.80908 11.0617C4.06928 11.0546 4.15601 11.1389 4.15 11.4085C4.13369 12.0933 4.14485 12.779 4.14485 13.4638C4.14485 14.1345 4.1354 14.8053 4.15 15.4752C4.15601 15.7307 4.10105 15.8518 3.82196 15.8281C3.51023 15.8018 3.19335 15.836 2.88162 15.8079C2.28822 15.7553 1.85455 15.3136 1.84338 14.7087C1.82192 13.5867 1.83823 12.4638 1.82965 11.3417C1.82793 11.1363 1.89319 11.059 2.09844 11.0626C2.66865 11.0731 3.23972 11.0784 3.80908 11.0617ZM21.7348 14.642C21.727 15.2557 21.3543 15.7114 20.7704 15.7939C20.3925 15.8474 20.0027 15.815 19.6188 15.8255C19.3869 15.8316 19.4281 15.6604 19.4273 15.5217C19.4247 14.8369 19.4264 14.1521 19.4264 13.4673C19.4264 12.7825 19.4359 12.0977 19.4213 11.4129C19.4161 11.1565 19.4771 11.0476 19.7502 11.0564C20.3195 11.0757 20.8906 11.0731 21.46 11.0582C21.6918 11.052 21.7459 11.1424 21.7442 11.3628C21.7356 12.4559 21.7485 13.5489 21.7348 14.642Z" fill="#F99C16"/>
</svg>
