<svg width="295" height="193" viewBox="0 0 295 193" fill="none" xmlns="http://www.w3.org/2000/svg">
<path d="M173.64 92.9048C173.555 92.9015 173.469 92.8964 173.384 92.8931C173.097 93.3543 172.812 93.8171 172.525 94.2766C170.4 97.6519 169.017 101.335 168.17 105.206C167.68 107.445 167.356 109.728 167.078 112.005C166.672 115.337 166.386 118.674 166.54 122.049C166.725 126.115 167.265 130.103 168.491 133.99C169.073 135.835 169.985 137.519 171.034 139.131C171.415 139.72 171.721 139.713 172.089 139.083C172.376 138.587 172.644 138.04 172.749 137.484C173.082 135.731 173.364 133.968 173.612 132.204C174.244 127.677 174.33 123.11 174.416 118.555C174.529 112.52 174.496 106.48 174.172 100.447C174.06 98.3587 173.986 96.2667 173.872 94.178C173.849 93.7503 173.72 93.3292 173.64 92.9048ZM128.131 86.8343C128.248 86.5385 128.406 86.2511 128.479 85.9437C128.952 83.977 129.335 81.9852 129.887 80.0419C130.684 77.2397 131.53 74.4459 132.483 71.6939C133.493 68.7764 134.772 65.9676 136.248 63.2489C137.29 61.329 138.645 59.6581 140.123 58.0707C140.404 57.7699 140.712 57.4892 140.961 57.1634C142.071 55.7097 143.659 55.2067 145.361 54.9811C146.174 54.8725 147.008 54.8775 147.83 54.8993C149.412 54.941 150.564 55.9252 150.868 57.4725C151.4 60.1727 151.786 62.8947 151.644 65.6518C151.554 67.3979 151.351 69.1407 151.124 70.8751C150.666 74.3791 150.054 77.868 149.7 81.382C149.384 84.5183 149.322 87.6814 149.165 90.8328C149.118 91.7936 149.133 92.7561 149.108 93.7169C149.074 95.0703 149.35 96.3803 149.659 97.682C149.721 97.9427 149.882 98.1833 150.026 98.4156C150.288 98.845 150.626 98.9987 151.156 98.8233C152.779 98.2802 154.035 97.2442 155.096 95.9526C156.719 93.9775 157.901 91.7251 159.05 89.4593C161.061 85.4975 162.537 81.3352 163.668 77.0492C164.218 74.9622 164.642 72.8401 165.119 70.7314C165.64 68.4255 166.17 66.1196 166.667 63.807C167.142 61.593 167.568 59.3673 168.034 57.1517C168.559 54.667 169.091 52.184 169.646 49.7076C170.087 47.7343 170.534 45.7592 171.042 43.8025C171.647 41.4816 172.289 39.169 172.973 36.8698C173.58 34.8313 174.238 32.8077 174.929 30.7976C175.359 29.5477 176.158 28.5017 177.049 27.5409C177.647 26.8943 178.388 26.4866 179.311 26.4565C179.789 26.4415 180.277 26.383 180.74 26.2644C182.068 25.9268 183.642 26.7122 183.982 28.5251C184.346 30.4801 184.662 32.4502 184.861 34.4269C185.03 36.0962 185.084 37.7872 185.043 39.4648C184.963 42.7916 184.786 46.1151 184.644 49.4403C184.544 51.7713 184.44 54.1022 184.33 56.4332C184.204 59.0716 184.064 61.71 183.937 64.3467C183.753 68.1532 183.574 71.9579 183.4 75.7643C183.395 75.8879 183.467 76.0166 183.544 76.2923C183.853 76.1102 184.119 75.9949 184.333 75.8178C185.288 75.0324 186.247 74.2487 187.165 73.4233C188.095 72.5878 189.165 72.7984 190.191 73.0206C190.542 73.0975 190.798 73.6088 191.179 74.0098C190.477 74.8002 189.865 75.5303 189.208 76.2188C187.835 77.6625 186.458 79.1012 185.047 80.5064C183.606 81.9434 182.897 83.6595 182.9 85.6813C182.902 86.6104 182.919 87.5377 182.897 88.4651C182.808 92.2732 182.761 96.0846 182.591 99.891C182.479 102.357 182.155 104.812 181.969 107.277C181.857 108.782 181.824 110.294 181.76 111.803C181.611 115.3 181.573 118.806 181.294 122.292C181.004 125.881 180.573 129.463 180.035 133.024C179.587 135.98 178.752 138.852 177.385 141.543C176.017 144.234 174.28 144.891 171.36 144.107C169.024 143.479 167.377 142.024 165.946 140.229C164.019 137.813 162.997 135.004 162.44 131.985C161.929 129.211 161.605 126.417 161.452 123.607C161.319 121.145 161.272 118.674 161.519 116.211C161.67 114.711 161.807 113.207 161.977 111.708C162.29 108.974 162.939 106.312 163.691 103.667C164.634 100.359 165.891 97.1757 167.401 94.0895C169.009 90.8011 171.249 87.9906 174.108 85.7164C175.255 84.8041 175.67 83.6795 175.735 82.3311C175.787 81.2349 175.803 80.1355 175.812 79.036C175.842 74.8804 175.852 70.7231 175.89 66.5674C175.919 63.6834 175.982 60.801 176.031 57.917C176.077 55.1365 176.124 52.3577 176.171 49.5773C176.195 48.1687 176.225 46.7618 176.236 45.3532C176.24 45.0323 176.188 44.7115 176.072 44.384C175.611 44.8669 175.516 45.4584 175.405 46.0449C174.865 48.8738 174.34 51.7078 173.78 54.5333C173.341 56.754 172.883 58.9697 172.388 61.1786C171.931 63.2205 171.452 65.2591 170.915 67.2826C170.31 69.5684 169.679 71.8526 168.966 74.1067C168.063 76.949 167.148 79.7929 166.085 82.5784C164.972 85.4892 163.751 88.3632 162.439 91.1904C160.974 94.3468 159.129 97.2793 156.634 99.754C155.554 100.825 154.339 101.712 153.016 102.464C151.126 103.539 149.126 103.607 147.021 103.305C143.902 102.855 142.332 100.83 141.422 98.0847C140.566 95.4964 140.1 92.8329 140.055 90.0993C140.03 88.5904 139.873 87.0782 139.933 85.5744C140.046 82.6954 140.207 79.8163 140.471 76.9473C140.725 74.1819 141.111 71.4265 141.483 68.6711C141.66 67.3461 141.946 66.0344 142.163 64.7144C142.233 64.295 142.242 63.8672 142.277 63.4444C142.21 63.4244 142.143 63.4027 142.076 63.3826C141.941 63.5497 141.783 63.7034 141.671 63.8872C139.901 66.7997 138.48 69.8692 137.504 73.1442C136.73 75.7375 135.85 78.3008 135.126 80.9074C134.421 83.4506 133.834 86.0272 133.227 88.5954C132.707 90.7994 132.211 93.0101 131.742 95.2257C131.202 97.7756 130.701 100.332 130.191 102.889C129.663 105.545 129.134 108.202 128.628 110.862C128.28 112.684 127.968 114.51 127.647 116.335C127.414 117.651 127.209 118.975 126.966 120.29C126.826 121.05 126.498 121.386 125.727 121.441C125.013 121.491 124.284 121.47 123.576 121.383C122.965 121.307 122.367 121.12 121.777 120.94C120.399 120.52 119.719 119.491 119.516 118.144C119.373 117.197 119.301 116.231 119.289 115.274C119.259 112.697 119.286 110.12 119.277 107.544C119.262 103.387 118.995 99.2427 118.567 95.1104C118.455 94.0293 118.233 92.9599 118.054 91.8437C117.522 91.9524 117.51 92.3283 117.452 92.6391C116.979 95.1689 116.544 97.7071 116.044 100.232C115.546 102.757 115.018 105.276 114.444 107.785C113.871 110.291 113.311 112.806 112.592 115.272C111.594 118.692 110.499 122.086 109.358 125.461C108.004 129.463 106.225 133.29 104.336 137.066C104.248 137.243 104.179 137.43 104.057 137.718C104.341 137.768 104.564 137.863 104.766 137.833C105.956 137.658 107.148 137.489 108.325 137.252C114.392 136.03 120.342 134.396 126.174 132.317C132.03 130.229 137.756 127.841 143.316 125.064C147.03 123.209 150.716 121.299 154.372 119.339C155.235 118.876 155.962 119.068 156.721 119.359C156.917 119.434 157.086 119.852 157.084 120.111C157.079 121.242 157.004 122.372 156.962 123.503C156.944 124.006 156.559 124.205 156.2 124.389C154.337 125.344 152.488 126.329 150.594 127.218C147.21 128.807 143.811 130.364 140.394 131.879C135.875 133.883 131.269 135.674 126.568 137.198C122.685 138.458 118.754 139.564 114.76 140.448C111.067 141.263 107.351 141.935 103.596 142.351C98.6739 142.898 93.7353 143.2 88.7817 142.741C85.3511 142.421 81.9657 141.867 78.6889 140.781C74.4007 139.362 70.2546 137.654 66.7939 134.632C64.2193 132.382 62.2432 129.696 60.8891 126.556C60.7754 126.294 60.7169 126.008 60.6099 125.652C61.4859 125.562 61.9707 125.933 62.3937 126.459C63.3199 127.61 64.2076 128.797 65.1957 129.889C68.5677 133.624 72.6252 136.239 77.5722 137.427C81.2368 138.306 84.9516 138.633 88.7048 138.725C90.6608 138.772 92.6152 138.894 94.5696 138.981C94.8454 138.993 95.1196 138.991 95.3954 138.996C96.2932 139.016 96.8031 138.608 97.1626 137.749C99.0584 133.226 101.063 128.75 102.935 124.218C104.388 120.704 105.764 117.155 107.061 113.581C108.345 110.035 109.539 106.454 110.676 102.86C111.565 100.05 112.348 97.2024 113.103 94.3518C113.938 91.2038 114.733 88.044 115.459 84.8692C116.026 82.3946 116.477 79.8932 116.947 77.3985C117.335 75.3415 117.738 73.2863 118.024 71.2143C118.446 68.1565 118.803 65.0887 119.129 62.0191C119.567 57.8819 119.441 53.7212 119.588 49.5706C119.712 46.0767 120.033 42.5878 120.249 39.0955C120.439 36.0126 120.601 32.9281 120.784 29.8435C120.906 27.7548 121.053 25.6662 121.168 23.5775C121.362 20.0484 121.528 16.5178 121.73 12.9887C121.946 9.22076 122.183 5.45279 122.427 1.68649C122.491 0.693954 122.675 0.622101 123.632 0.312973C124.967 -0.116455 126.256 -0.096405 127.575 0.32634C128.563 0.643814 129.363 1.19858 129.502 2.24959C129.688 3.63647 129.807 5.05009 129.766 6.44699C129.671 9.80725 129.474 13.1658 129.305 16.5244C129.121 20.1554 128.91 23.7847 128.732 27.4156C128.618 29.7466 128.534 32.0792 128.444 34.4102C128.337 37.2207 128.238 40.0329 128.138 42.8434C128.095 44.0799 128.054 45.3147 128.018 46.5496C127.871 51.559 127.715 56.5668 127.581 61.5763C127.518 63.9791 127.503 66.382 127.449 68.7848C127.424 69.916 127.295 71.0489 127.322 72.1784C127.406 75.918 127.536 79.6559 127.652 83.3955C127.68 84.3212 127.707 85.2485 127.747 86.1742C127.755 86.3681 127.812 86.5602 127.847 86.7524C127.941 86.7791 128.036 86.8059 128.131 86.8343Z" fill="#085394"/>
<path d="M196.777 7.8426C197.229 7.77576 197.682 7.64208 198.131 7.65378C199.746 7.69723 201.361 7.7507 202.97 7.87602C204.956 8.03309 206.94 8.2219 208.916 8.47254C214.947 9.23616 220.407 11.3783 225.073 15.3401C228.201 17.9952 230.464 21.2452 231.784 25.1602C233.101 29.0686 233.365 33.0638 233.108 37.1442C232.927 40.0049 232.399 42.797 231.611 45.5373C230.578 49.1332 229.216 52.6121 227.627 56.0008C224.511 62.6511 220.551 68.7768 216.083 74.5883C213.215 78.3195 210.245 81.9722 206.985 85.3659C203.846 88.6326 200.639 91.8441 197.336 94.9454C194.559 97.5521 191.583 99.9415 188.736 102.475C187.947 103.175 187.111 103.073 186.223 102.958C185.802 102.904 185.645 102.603 185.648 102.227C185.661 101.059 185.635 99.8864 185.753 98.7284C185.792 98.3591 186.193 97.9832 186.502 97.6907C188.301 95.9947 190.154 94.3555 191.927 92.6361C196.048 88.6426 199.964 84.4502 203.637 80.0406C209.226 73.3284 214.313 66.267 218.439 58.5389C220.171 55.2956 221.731 51.9805 222.966 48.5216C224.324 44.7253 225.215 40.8136 225.456 36.7816C225.675 33.0955 225.441 29.4345 224.341 25.8837C223.038 21.6746 220.666 18.1607 217.222 15.3969C215.014 13.6241 212.591 12.1787 209.909 11.2547C208.162 10.6548 206.357 10.202 204.55 9.80595C202.137 9.27794 199.696 8.8719 197.27 8.40237C197.092 8.36727 196.929 8.23861 196.759 8.15339L196.777 7.8426Z" fill="#085394"/>
<path d="M88.6047 136.184C87.839 136.097 87.2154 136.112 86.6436 135.945C83.4153 135.008 80.2222 133.98 77.2714 132.306C72.4749 129.581 69.2734 125.569 67.5999 120.357C66.7222 117.627 66.4397 114.798 66.5834 111.919C66.9212 105.147 68.9992 98.8689 71.9099 92.8217C74.4795 87.4814 77.7328 82.5555 81.2771 77.8317C84.7829 73.1615 88.6197 68.7686 92.7224 64.5979C97.4486 59.7906 102.469 55.3208 107.7 51.0816C109.648 49.5026 111.669 48.0155 113.647 46.4765C114.212 46.0371 114.822 45.8048 115.546 45.8232C116.023 45.8349 116.253 46.0287 116.25 46.4966C116.247 46.9762 116.237 47.4574 116.216 47.9369C116.201 48.2795 116.103 48.6287 116.146 48.9612C116.295 50.0707 115.837 50.7775 114.953 51.4626C110.251 55.1019 105.791 59.0203 101.491 63.1291C96.815 67.5972 92.4231 72.3193 88.3522 77.3388C84.4084 82.2012 80.8641 87.3411 77.9619 92.8953C75.7634 97.101 74.0665 101.502 72.9748 106.141C72.3512 108.796 71.9349 111.484 71.8948 114.185C71.848 117.385 72.3914 120.531 73.7087 123.507C76.2098 129.16 80.488 132.886 86.1855 135.092C86.9178 135.376 87.6718 135.601 88.4141 135.858C88.4375 135.867 88.4492 135.915 88.6047 136.184Z" fill="#085394"/>
<path d="M172.652 18.7188C172.881 19.5209 173.08 20.1057 173.212 20.7056C173.378 21.4609 173.269 21.6146 172.552 21.8184C164.255 24.1878 156.228 27.2824 148.426 30.9418C144.424 32.8199 140.527 34.9153 136.589 36.9321C135.921 37.2746 135.299 37.7074 134.655 38.0984C133.975 38.5111 133.251 38.5897 132.381 38.3892C132.251 37.2011 132.263 36.003 132.378 34.8184C132.405 34.541 132.806 34.2252 133.109 34.0597C135.06 32.9853 136.996 31.8742 139.005 30.915C143.181 28.9199 147.363 26.9265 151.614 25.1002C154.538 23.8436 157.554 22.7776 160.585 21.7967C163.78 20.7624 167.033 19.9102 170.275 19.028C171.019 18.8258 171.818 18.8208 172.652 18.7188Z" fill="#085394"/>
<path d="M221.769 32.5165C221.371 32.5983 221.012 32.6852 220.649 32.7437C219.853 32.874 219.305 32.6184 218.887 31.8615C216.13 26.8887 211.927 23.6471 206.611 21.7706C203.061 20.5174 199.413 19.7455 195.645 19.5851C193.313 19.4848 190.979 19.3996 188.645 19.3177C187.585 19.2793 187.565 19.2926 187.493 18.2182C187.453 17.6117 187.487 17.0018 187.487 16.3618C188.804 15.9909 190.103 15.9775 191.402 16.0226C193.565 16.0995 195.735 16.1229 197.887 16.3234C202.356 16.7394 206.726 17.6284 210.762 19.687C214.497 21.5919 217.727 24.1116 219.82 27.8311C220.557 29.1395 221.09 30.5615 221.706 31.9366C221.769 32.0787 221.744 32.2608 221.769 32.5165Z" fill="#085394"/>
<path d="M185.279 18.0947C185.279 20.9136 182.992 23.1995 180.172 23.1995C177.352 23.1995 175.064 20.9136 175.064 18.0947C175.064 15.2759 177.352 12.99 180.172 12.99C182.992 12.99 185.279 15.2759 185.279 18.0947Z" fill="#F99C16"/>
<path d="M0 167.109H5.74437V176.614H15.2537V167.109H20.9981V192.057H15.2537V182.156H5.74437V192.057H0V167.109Z" fill="#085394"/>
<path d="M34.8693 167.109H40.6137V183.74C40.6137 188.888 37.2466 192.253 32.0958 192.253C26.9466 192.253 23.5762 188.888 23.5762 184.136C24.5274 184.096 25.915 184.017 27.1438 183.899L29.3222 183.74C29.3222 185.523 30.5109 186.711 32.0958 186.711C33.6807 186.711 34.8693 185.523 34.8693 183.74V167.109Z" fill="#085394"/>
<path d="M64.1897 178.196C66.211 178.196 67.3612 177.008 67.3612 175.424C67.3612 173.84 66.211 172.652 64.1897 172.652H59.8313V178.196H64.1897ZM54.0869 167.107H64.1897C69.3807 167.107 72.9049 170.712 72.9049 175.028C72.945 180.61 68.1921 182.552 68.1519 182.552L73.7007 192.055H67.3612L62.8021 183.738H59.8313V192.055H54.0869V167.107Z" fill="#085394"/>
<path d="M76.6729 167.109H94.5011V172.654H82.4172V176.614H93.5131V182.156H82.4172V186.512H94.899V192.057H76.6729V167.109Z" fill="#085394"/>
<path d="M110.948 182.355L108.174 174.039L105.399 182.355H110.948ZM105.203 167.109H111.147L120.061 192.057H114.116L112.531 187.304H103.816L102.232 192.057H96.2891L105.203 167.109Z" fill="#085394"/>
<path d="M122.241 167.109H127.986V186.512H139.277V192.057H122.241V167.109Z" fill="#085394"/>
<path d="M151.167 167.109H168.995V172.654H156.911V176.614H168.003V182.156H156.911V186.512H169.391V192.057H151.167V167.109Z" fill="#085394"/>
<path d="M177.716 183.74C177.716 185.997 178.904 187.107 181.28 187.107C183.5 187.107 184.649 185.917 184.649 184.532C184.649 180.771 172.367 182.948 172.367 174.038C172.367 170.277 175.734 166.91 181.28 166.91C186.63 166.91 189.998 170.277 189.998 174.83L184.45 175.226C184.45 173.206 183.301 172.058 181.28 172.058C179.498 172.058 178.309 173.206 178.309 174.434C178.309 177.999 190.59 175.82 190.59 184.928C190.59 188.888 187.225 192.253 181.28 192.253C175.536 192.253 172.168 188.888 172.168 184.136L177.716 183.74Z" fill="#085394"/>
<path d="M198.913 172.652H191.782V167.107H211.789V172.652H204.66V192.055H198.913V172.652Z" fill="#085394"/>
<path d="M225.064 182.355L222.292 174.039L219.52 182.355H225.064ZM219.321 167.109H225.263L234.177 192.057H228.236L226.649 187.304H217.934L216.349 192.057H210.407L219.321 167.109Z" fill="#085394"/>
<path d="M239.924 172.652H232.793V167.107H252.8V172.652H245.671V192.055H239.924V172.652Z" fill="#085394"/>
<path d="M255.577 167.109H273.405V172.654H261.321V176.614H272.414V182.156H261.321V186.512H273.801V192.057H255.577V167.109Z" fill="#085394"/>
<path d="M282.123 183.74C282.123 185.997 283.312 187.107 285.691 187.107C287.908 187.107 289.058 185.917 289.058 184.532C289.058 180.771 276.775 182.948 276.775 174.038C276.775 170.277 280.144 166.91 285.691 166.91C291.037 166.91 294.406 170.277 294.406 174.83L288.859 175.226C288.859 173.206 287.71 172.058 285.691 172.058C283.907 172.058 282.72 173.206 282.72 174.434C282.72 177.999 295 175.82 295 184.928C295 188.888 291.634 192.253 285.691 192.253C279.945 192.253 276.576 188.888 276.576 184.136L282.123 183.74Z" fill="#085394"/>
</svg>
